<mxfile host="app.diagrams.net" modified="2024-05-06T04:04:21.381Z" agent="Mozilla/5.0 (Windows NT 10.0; Win64; x64) AppleWebKit/537.36 (KHTML, like Gecko) Chrome/121.0.0.0 Safari/537.36 OPR/107.0.0.0" etag="KgPSqBE6f4YRSQPJEH-A" version="24.3.1" type="github">
  <diagram name="Trang-1" id="L1Plk8p9cWH6rIeh8Mmw">
    <mxGraphModel dx="1244" dy="719" grid="1" gridSize="10" guides="1" tooltips="1" connect="1" arrows="1" fold="1" page="1" pageScale="1" pageWidth="827" pageHeight="1169" math="0" shadow="0">
      <root>
        <mxCell id="0" />
        <mxCell id="1" parent="0" />
        <mxCell id="cfozuMJ-gLK_fUYHnGE--1" value="Khách Hàng&lt;div&gt;&lt;br&gt;&lt;/div&gt;" style="shape=umlActor;verticalLabelPosition=bottom;verticalAlign=top;html=1;outlineConnect=0;" parent="1" vertex="1">
          <mxGeometry x="60" y="380" width="30" height="60" as="geometry" />
        </mxCell>
        <mxCell id="cfozuMJ-gLK_fUYHnGE--2" value="Thêm vào giỏ hàng" style="ellipse;whiteSpace=wrap;html=1;" parent="1" vertex="1">
          <mxGeometry x="300" y="220" width="110" height="60" as="geometry" />
        </mxCell>
        <mxCell id="KkpljdjRJnGIZswIgD6h-1" value="Thanh Toán" style="ellipse;whiteSpace=wrap;html=1;" vertex="1" parent="1">
          <mxGeometry x="300" y="380" width="110" height="60" as="geometry" />
        </mxCell>
        <mxCell id="KkpljdjRJnGIZswIgD6h-3" value="Xem sản phẩm" style="ellipse;whiteSpace=wrap;html=1;" vertex="1" parent="1">
          <mxGeometry x="300" y="510" width="110" height="60" as="geometry" />
        </mxCell>
        <mxCell id="KkpljdjRJnGIZswIgD6h-10" value="" style="endArrow=none;html=1;rounded=0;entryX=0;entryY=0.5;entryDx=0;entryDy=0;" edge="1" parent="1" target="cfozuMJ-gLK_fUYHnGE--2">
          <mxGeometry width="50" height="50" relative="1" as="geometry">
            <mxPoint x="140" y="410" as="sourcePoint" />
            <mxPoint x="260.33" y="230" as="targetPoint" />
          </mxGeometry>
        </mxCell>
        <mxCell id="KkpljdjRJnGIZswIgD6h-11" value="" style="endArrow=none;html=1;rounded=0;entryX=0;entryY=0.5;entryDx=0;entryDy=0;" edge="1" parent="1" target="KkpljdjRJnGIZswIgD6h-1">
          <mxGeometry width="50" height="50" relative="1" as="geometry">
            <mxPoint x="150" y="440" as="sourcePoint" />
            <mxPoint x="200" y="470" as="targetPoint" />
          </mxGeometry>
        </mxCell>
        <mxCell id="KkpljdjRJnGIZswIgD6h-12" value="" style="endArrow=none;html=1;rounded=0;entryX=0;entryY=0.5;entryDx=0;entryDy=0;" edge="1" parent="1" target="KkpljdjRJnGIZswIgD6h-3">
          <mxGeometry width="50" height="50" relative="1" as="geometry">
            <mxPoint x="150" y="470" as="sourcePoint" />
            <mxPoint x="220" y="590" as="targetPoint" />
          </mxGeometry>
        </mxCell>
        <mxCell id="KkpljdjRJnGIZswIgD6h-13" value="Admin" style="shape=umlActor;verticalLabelPosition=bottom;verticalAlign=top;html=1;outlineConnect=0;" vertex="1" parent="1">
          <mxGeometry x="540" y="370" width="30" height="60" as="geometry" />
        </mxCell>
        <mxCell id="KkpljdjRJnGIZswIgD6h-14" value="Quản lý thông tin" style="ellipse;whiteSpace=wrap;html=1;" vertex="1" parent="1">
          <mxGeometry x="790" y="200" width="140" height="70" as="geometry" />
        </mxCell>
        <mxCell id="KkpljdjRJnGIZswIgD6h-15" value="Quản lý sản phẩm" style="ellipse;whiteSpace=wrap;html=1;" vertex="1" parent="1">
          <mxGeometry x="790" y="350" width="140" height="70" as="geometry" />
        </mxCell>
        <mxCell id="KkpljdjRJnGIZswIgD6h-17" value="Quản lý đơn hàng" style="ellipse;whiteSpace=wrap;html=1;" vertex="1" parent="1">
          <mxGeometry x="800" y="490" width="140" height="70" as="geometry" />
        </mxCell>
        <mxCell id="KkpljdjRJnGIZswIgD6h-19" value="Thống kê" style="ellipse;whiteSpace=wrap;html=1;" vertex="1" parent="1">
          <mxGeometry x="810" y="640" width="140" height="70" as="geometry" />
        </mxCell>
        <mxCell id="KkpljdjRJnGIZswIgD6h-21" value="" style="endArrow=none;html=1;rounded=0;entryX=0;entryY=0.5;entryDx=0;entryDy=0;" edge="1" parent="1" target="KkpljdjRJnGIZswIgD6h-14">
          <mxGeometry width="50" height="50" relative="1" as="geometry">
            <mxPoint x="600" y="380" as="sourcePoint" />
            <mxPoint x="650" y="330" as="targetPoint" />
          </mxGeometry>
        </mxCell>
        <mxCell id="KkpljdjRJnGIZswIgD6h-22" value="" style="endArrow=none;html=1;rounded=0;entryX=0;entryY=0.5;entryDx=0;entryDy=0;" edge="1" parent="1" target="KkpljdjRJnGIZswIgD6h-15">
          <mxGeometry width="50" height="50" relative="1" as="geometry">
            <mxPoint x="600" y="400" as="sourcePoint" />
            <mxPoint x="700" y="420" as="targetPoint" />
          </mxGeometry>
        </mxCell>
        <mxCell id="KkpljdjRJnGIZswIgD6h-23" value="" style="endArrow=none;html=1;rounded=0;entryX=0;entryY=0.5;entryDx=0;entryDy=0;" edge="1" parent="1" target="KkpljdjRJnGIZswIgD6h-17">
          <mxGeometry width="50" height="50" relative="1" as="geometry">
            <mxPoint x="600" y="430" as="sourcePoint" />
            <mxPoint x="700" y="540" as="targetPoint" />
          </mxGeometry>
        </mxCell>
        <mxCell id="KkpljdjRJnGIZswIgD6h-24" value="" style="endArrow=none;html=1;rounded=0;entryX=0;entryY=0.5;entryDx=0;entryDy=0;" edge="1" parent="1" target="KkpljdjRJnGIZswIgD6h-19">
          <mxGeometry width="50" height="50" relative="1" as="geometry">
            <mxPoint x="590" y="460" as="sourcePoint" />
            <mxPoint x="670" y="550" as="targetPoint" />
          </mxGeometry>
        </mxCell>
      </root>
    </mxGraphModel>
  </diagram>
</mxfile>
